<?xml version="1.0" encoding="utf-8"?>
<!-- Generator: Adobe Illustrator 13.0.0, SVG Export Plug-In . SVG Version: 6.00 Build 14948)  -->
<!DOCTYPE svg PUBLIC "-//W3C//DTD SVG 1.0//EN" "http://www.w3.org/TR/2001/REC-SVG-20010904/DTD/svg10.dtd">
<svg version="1.0" id="Layer_1" xmlns="http://www.w3.org/2000/svg" xmlns:xlink="http://www.w3.org/1999/xlink" x="0px" y="0px"
	 width="135.672px" height="46.98px" viewBox="0 0 135.672 46.98" enable-background="new 0 0 135.672 46.98" xml:space="preserve">
<g id="Layer_1_1_">
	<rect y="2.246" fill="#25282E" width="7" height="40.011"/>
	<rect x="32" y="2.246" fill="#25282E" width="7" height="40.011"/>
	<polygon fill="#25282E" points="11.005,12.23 19.484,31.23 28,12.23 28,42.242 11.005,42.242 	"/>
	<polygon fill="#25282E" points="11.005,2.246 28,2.246 19.484,22.257 	"/>
	<g id="Layer_2">
		<g enable-background="new    ">
			<path fill="#25282E" d="M48.846,10.922c0-0.018,0.008-0.052,0.026-0.104l2.661-8.643c0.076-0.253,0.297-0.38,0.663-0.38
				s0.586,0.128,0.663,0.383l2.67,8.674c0,0.016,0.002,0.032,0.007,0.049c0.004,0.016,0.006,0.028,0.006,0.036
				c0,0.114-0.071,0.216-0.214,0.306c-0.143,0.089-0.297,0.134-0.461,0.134c-0.208,0-0.338-0.082-0.39-0.245l-0.572-1.926h-3.44
				l-0.57,1.918c-0.051,0.169-0.183,0.253-0.396,0.253c-0.153,0-0.3-0.043-0.44-0.13S48.846,11.052,48.846,10.922z M50.733,8.296
				h2.901l-1.446-4.897L50.733,8.296z"/>
		</g>
		<g enable-background="new    ">
			<path fill="#25282E" d="M57.173,10.987V2.251c0-0.104,0.037-0.19,0.111-0.26c0.073-0.069,0.167-0.108,0.279-0.117h2.379
				c0.867,0,1.564,0.201,2.093,0.604c0.528,0.403,0.793,1.068,0.793,1.995c0,1.431-0.646,2.275-1.937,2.535l1.924,3.653
				c0.035,0.061,0.052,0.121,0.052,0.182c0,0.139-0.07,0.267-0.208,0.384c-0.139,0.117-0.286,0.176-0.442,0.176
				c-0.182,0-0.347-0.144-0.494-0.43L59.76,7.165h-1.495v3.822c0,0.121-0.054,0.217-0.163,0.286s-0.236,0.104-0.383,0.104
				c-0.148,0-0.275-0.034-0.384-0.104S57.173,11.108,57.173,10.987z M58.265,6.255h1.677c1.196,0,1.794-0.567,1.794-1.703
				c0-1.126-0.598-1.689-1.794-1.689h-1.677V6.255z"/>
		</g>
		<g enable-background="new    ">
			<path fill="#25282E" d="M64.169,2.355c0-0.127,0.035-0.239,0.104-0.336s0.165-0.146,0.286-0.146h5.291
				c0.121,0,0.217,0.049,0.287,0.146c0.068,0.097,0.104,0.209,0.104,0.336c0,0.135-0.035,0.253-0.104,0.354
				c-0.07,0.102-0.166,0.152-0.287,0.152h-2.093v8.123c0,0.122-0.054,0.218-0.162,0.287c-0.109,0.069-0.236,0.104-0.384,0.104
				s-0.275-0.035-0.383-0.104c-0.108-0.069-0.163-0.165-0.163-0.287V2.862h-2.106c-0.122,0-0.217-0.049-0.286-0.146
				C64.204,2.619,64.169,2.499,64.169,2.355z"/>
		</g>
		<g enable-background="new    ">
			<path fill="#25282E" d="M74.891,8.702c0-0.597,0.162-1.118,0.49-1.564c0.326-0.445,0.734-0.789,1.225-1.031
				c-0.32-0.372-0.569-0.727-0.747-1.064s-0.267-0.718-0.267-1.143c0-0.696,0.234-1.247,0.702-1.652
				c0.468-0.404,1.054-0.607,1.755-0.607c0.658,0,1.196,0.155,1.612,0.466s0.624,0.602,0.624,0.873c0,0.139-0.051,0.257-0.149,0.356
				c-0.101,0.1-0.22,0.149-0.358,0.149c-0.086,0-0.18-0.05-0.279-0.149s-0.197-0.205-0.292-0.317
				c-0.096-0.113-0.243-0.219-0.442-0.318S78.335,2.55,78.075,2.55c-0.425,0-0.765,0.128-1.021,0.383
				c-0.256,0.256-0.384,0.6-0.384,1.032c0,0.268,0.073,0.547,0.222,0.837s0.287,0.513,0.418,0.669
				c0.13,0.155,0.334,0.385,0.612,0.688l2.491,2.699c0.252-0.554,0.387-1.284,0.404-2.193c0.008-0.138,0.047-0.237,0.115-0.298
				s0.188-0.092,0.359-0.092c0.17,0,0.29,0.044,0.358,0.13c0.068,0.087,0.103,0.226,0.103,0.416c0,1.004-0.223,1.916-0.666,2.738
				l1.156,1.239c0.061,0.069,0.092,0.144,0.092,0.222c0,0.114-0.055,0.22-0.163,0.316s-0.224,0.145-0.345,0.145
				c-0.096,0-0.19-0.048-0.285-0.144l-0.986-1.052c-0.66,0.814-1.533,1.222-2.621,1.222c-0.924,0-1.663-0.271-2.216-0.815
				C75.166,10.148,74.891,9.484,74.891,8.702z M75.982,8.611c0,0.536,0.186,0.988,0.56,1.356c0.374,0.367,0.886,0.551,1.538,0.551
				c0.799,0,1.403-0.307,1.813-0.921l-2.674-2.83c-0.234,0.139-0.428,0.275-0.58,0.409C76.487,7.31,76.34,7.506,76.197,7.76
				C76.054,8.016,75.982,8.3,75.982,8.611z"/>
		</g>
		<g enable-background="new    ">
			<path fill="#25282E" d="M87.173,10.987V2.251c0-0.121,0.054-0.215,0.163-0.279c0.107-0.065,0.235-0.098,0.383-0.098
				s0.275,0.032,0.384,0.098c0.108,0.064,0.163,0.158,0.163,0.279v3.744h3.522V2.251c0-0.121,0.054-0.215,0.163-0.279
				c0.107-0.065,0.235-0.098,0.383-0.098s0.275,0.032,0.383,0.098c0.109,0.064,0.163,0.158,0.163,0.279v8.736
				c0,0.121-0.054,0.217-0.163,0.286c-0.107,0.069-0.235,0.104-0.383,0.104s-0.275-0.034-0.383-0.104
				c-0.109-0.069-0.163-0.165-0.163-0.286V6.905h-3.522v4.082c0,0.121-0.055,0.217-0.163,0.286s-0.236,0.104-0.384,0.104
				s-0.275-0.034-0.383-0.104C87.227,11.204,87.173,11.108,87.173,10.987z"/>
		</g>
		<g enable-background="new    ">
			<path fill="#25282E" d="M95.36,10.987V2.251c0-0.121,0.054-0.215,0.163-0.279c0.107-0.065,0.235-0.098,0.383-0.098
				s0.275,0.032,0.384,0.098c0.108,0.064,0.163,0.158,0.163,0.279v8.736c0,0.121-0.055,0.217-0.163,0.286s-0.236,0.104-0.384,0.104
				s-0.275-0.034-0.383-0.104C95.414,11.204,95.36,11.108,95.36,10.987z"/>
		</g>
		<g enable-background="new    ">
			<path fill="#25282E" d="M98.555,10.038c0-0.139,0.049-0.273,0.148-0.403s0.211-0.194,0.332-0.194
				c0.078,0,0.178,0.054,0.299,0.162s0.247,0.229,0.377,0.364c0.13,0.134,0.334,0.256,0.611,0.363
				c0.277,0.108,0.589,0.163,0.936,0.163c0.563,0,1.006-0.137,1.326-0.41c0.32-0.272,0.48-0.673,0.48-1.202
				c0-0.477-0.146-0.864-0.441-1.163c-0.295-0.3-0.65-0.526-1.066-0.683s-0.834-0.323-1.254-0.501
				c-0.421-0.178-0.778-0.45-1.072-0.818c-0.295-0.368-0.442-0.843-0.442-1.424c0-0.455,0.087-0.852,0.26-1.189
				c0.173-0.337,0.405-0.591,0.696-0.762c0.289-0.171,0.591-0.296,0.902-0.375c0.313-0.078,0.646-0.118,1.002-0.118
				c0.537,0,1.051,0.078,1.54,0.234c0.489,0.155,0.734,0.371,0.734,0.647c0,0.121-0.044,0.252-0.13,0.392
				c-0.087,0.14-0.199,0.209-0.338,0.209c-0.035,0-0.234-0.082-0.598-0.247c-0.364-0.165-0.768-0.247-1.209-0.247
				c-0.529,0-0.956,0.108-1.281,0.325c-0.324,0.217-0.487,0.559-0.487,1.026c0,0.399,0.147,0.722,0.442,0.969
				s0.652,0.444,1.072,0.592s0.838,0.316,1.254,0.507s0.771,0.496,1.066,0.917c0.295,0.42,0.442,0.955,0.442,1.605
				c0,0.893-0.261,1.566-0.78,2.021s-1.209,0.682-2.066,0.682c-0.771,0-1.424-0.161-1.957-0.484
				C98.82,10.672,98.555,10.352,98.555,10.038z"/>
		</g>
		<g enable-background="new    ">
			<path fill="#25282E" d="M105.419,2.355c0-0.127,0.034-0.239,0.104-0.336c0.068-0.097,0.164-0.146,0.285-0.146h5.291
				c0.121,0,0.217,0.049,0.287,0.146c0.068,0.097,0.104,0.209,0.104,0.336c0,0.135-0.035,0.253-0.104,0.354
				c-0.07,0.102-0.166,0.152-0.287,0.152h-2.093v8.123c0,0.122-0.054,0.218-0.162,0.287s-0.236,0.104-0.384,0.104
				s-0.275-0.035-0.383-0.104c-0.109-0.069-0.163-0.165-0.163-0.287V2.862h-2.106c-0.121,0-0.217-0.049-0.285-0.146
				C105.453,2.619,105.419,2.499,105.419,2.355z"/>
		</g>
		<g enable-background="new    ">
			<path fill="#25282E" d="M113.207,8.621V4.708c0-0.979,0.254-1.696,0.76-2.151c0.508-0.455,1.186-0.683,2.035-0.683
				s1.529,0.228,2.041,0.683s0.768,1.172,0.768,2.151v3.913c0,0.979-0.256,1.696-0.768,2.151s-1.191,0.683-2.041,0.683
				s-1.527-0.228-2.035-0.683C113.461,10.317,113.207,9.6,113.207,8.621z M114.299,8.621c0,1.23,0.568,1.846,1.703,1.846
				c0.546,0,0.969-0.153,1.268-0.461s0.448-0.77,0.448-1.385V4.708c0-0.615-0.149-1.077-0.448-1.385s-0.722-0.461-1.268-0.461
				c-1.135,0-1.703,0.615-1.703,1.846V8.621z"/>
		</g>
		<g enable-background="new    ">
			<path fill="#25282E" d="M121.235,10.987V2.251c0-0.104,0.037-0.19,0.11-0.26c0.074-0.069,0.167-0.108,0.279-0.117h2.379
				c0.867,0,1.564,0.201,2.094,0.604c0.528,0.403,0.793,1.068,0.793,1.995c0,1.431-0.646,2.275-1.938,2.535l1.924,3.653
				c0.035,0.061,0.053,0.121,0.053,0.182c0,0.139-0.07,0.267-0.208,0.384c-0.139,0.117-0.286,0.176-0.442,0.176
				c-0.182,0-0.347-0.144-0.494-0.43l-1.963-3.809h-1.494v3.822c0,0.121-0.055,0.217-0.163,0.286s-0.236,0.104-0.384,0.104
				s-0.275-0.034-0.383-0.104C121.289,11.204,121.235,11.108,121.235,10.987z M122.328,6.255h1.676c1.197,0,1.795-0.567,1.795-1.703
				c0-1.126-0.598-1.689-1.795-1.689h-1.676V6.255z"/>
		</g>
		<g enable-background="new    ">
			<path fill="#25282E" d="M128.158,2.329c0-0.13,0.072-0.238,0.215-0.325s0.288-0.13,0.436-0.13c0.156,0,0.286,0.096,0.391,0.286
				l2.287,4.459l2.275-4.459c0.104-0.19,0.234-0.286,0.39-0.286c0.156,0,0.304,0.043,0.442,0.13s0.207,0.195,0.207,0.325
				c0,0.069-0.017,0.143-0.051,0.221l-2.691,5.019c-0.018,0.025-0.025,0.069-0.025,0.13v3.289c0,0.121-0.055,0.217-0.163,0.286
				s-0.236,0.104-0.384,0.104s-0.275-0.034-0.383-0.104c-0.109-0.069-0.163-0.165-0.163-0.286V7.698c0-0.044-0.013-0.087-0.039-0.13
				l-2.69-5.019C128.176,2.471,128.158,2.398,128.158,2.329z"/>
		</g>
		<g enable-background="new    ">
			<path fill="#25282E" d="M49.204,40.574v-15.84c0-0.656,0.336-0.984,1.008-0.984c0.64,0,1.176,0.424,1.608,1.271l3.768,7.225
				l3.792-7.225c0.464-0.848,1-1.271,1.608-1.271c0.672,0,1.008,0.328,1.008,0.984v15.84c0,0.224-0.1,0.399-0.3,0.527
				c-0.2,0.129-0.436,0.192-0.708,0.192s-0.508-0.063-0.708-0.192c-0.2-0.128-0.3-0.304-0.3-0.527V27.973l-3.624,6.816
				c-0.192,0.368-0.456,0.552-0.792,0.552c-0.304,0-0.552-0.184-0.744-0.552l-3.6-6.912v12.696c0,0.224-0.1,0.399-0.3,0.527
				c-0.2,0.129-0.436,0.192-0.708,0.192s-0.508-0.063-0.708-0.192C49.304,40.973,49.204,40.798,49.204,40.574z"/>
		</g>
		<g enable-background="new    ">
			<path fill="#25282E" d="M65.8,36.206v-11.76c0-0.225,0.1-0.396,0.3-0.517c0.2-0.12,0.436-0.18,0.708-0.18
				c0.272,0,0.508,0.06,0.708,0.18c0.2,0.12,0.3,0.292,0.3,0.517v11.76c0,2.272,1.072,3.408,3.215,3.408
				c1.041,0,1.84-0.284,2.4-0.853c0.561-0.567,0.84-1.42,0.84-2.556v-11.76c0-0.464,0.336-0.696,1.008-0.696
				c0.272,0,0.508,0.06,0.709,0.18c0.199,0.12,0.3,0.292,0.3,0.517v11.76c0,1.809-0.479,3.132-1.44,3.972
				c-0.959,0.84-2.231,1.26-3.816,1.26c-1.584,0-2.852-0.42-3.803-1.26C66.276,39.338,65.8,38.014,65.8,36.206z"/>
		</g>
		<g enable-background="new    ">
			<path fill="#25282E" d="M79.21,38.738c0-0.256,0.092-0.504,0.276-0.744c0.184-0.24,0.387-0.36,0.611-0.36
				c0.145,0,0.328,0.101,0.553,0.3c0.224,0.2,0.455,0.425,0.695,0.673s0.616,0.472,1.129,0.672c0.512,0.2,1.088,0.3,1.728,0.3
				c1.04,0,1.855-0.252,2.448-0.756c0.592-0.504,0.888-1.244,0.888-2.221c0-0.879-0.272-1.596-0.815-2.147
				c-0.545-0.552-1.201-0.972-1.969-1.26s-1.54-0.597-2.316-0.925c-0.775-0.327-1.436-0.831-1.979-1.512
				c-0.544-0.68-0.815-1.556-0.815-2.628c0-0.841,0.159-1.572,0.479-2.195c0.319-0.622,0.747-1.092,1.284-1.407
				c0.535-0.315,1.092-0.546,1.668-0.691s1.191-0.218,1.848-0.218c0.992,0,1.939,0.144,2.844,0.431
				c0.904,0.288,1.356,0.687,1.356,1.196c0,0.225-0.081,0.466-0.24,0.723c-0.16,0.258-0.368,0.386-0.624,0.386
				c-0.064,0-0.432-0.151-1.104-0.455c-0.672-0.305-1.416-0.456-2.232-0.456c-0.977,0-1.764,0.2-2.363,0.6
				c-0.601,0.4-0.9,1.032-0.9,1.896c0,0.736,0.271,1.332,0.816,1.788c0.543,0.456,1.203,0.82,1.979,1.093
				c0.776,0.271,1.548,0.584,2.315,0.936c0.769,0.353,1.424,0.916,1.969,1.692c0.543,0.776,0.816,1.764,0.816,2.964
				c0,1.648-0.48,2.893-1.441,3.732c-0.959,0.84-2.231,1.26-3.815,1.26c-1.425,0-2.628-0.299-3.612-0.896
				C79.702,39.909,79.21,39.319,79.21,38.738z"/>
		</g>
		<g enable-background="new    ">
			<path fill="#25282E" d="M92.622,40.574V24.469c0-0.224,0.092-0.399,0.276-0.527c0.184-0.128,0.396-0.192,0.636-0.192h8.544
				c0.224,0,0.396,0.088,0.516,0.264c0.12,0.177,0.18,0.384,0.18,0.624c0,0.257-0.063,0.477-0.191,0.66
				c-0.129,0.185-0.297,0.276-0.504,0.276h-7.439v6.096h3.743c0.208,0,0.376,0.084,0.504,0.252s0.192,0.372,0.192,0.612
				c0,0.208-0.061,0.396-0.18,0.563c-0.121,0.168-0.293,0.252-0.517,0.252h-3.743v6.12h7.439c0.207,0,0.375,0.093,0.504,0.276
				c0.128,0.184,0.191,0.404,0.191,0.66c0,0.239-0.06,0.448-0.18,0.624c-0.119,0.176-0.292,0.264-0.516,0.264h-8.544
				c-0.24,0-0.452-0.063-0.636-0.192C92.714,40.973,92.622,40.798,92.622,40.574z"/>
		</g>
		<g enable-background="new    ">
			<path fill="#25282E" d="M105.382,36.206v-11.76c0-0.225,0.101-0.396,0.3-0.517c0.2-0.12,0.436-0.18,0.709-0.18
				c0.271,0,0.508,0.06,0.707,0.18c0.2,0.12,0.301,0.292,0.301,0.517v11.76c0,2.272,1.071,3.408,3.215,3.408
				c1.041,0,1.84-0.284,2.4-0.853c0.561-0.567,0.84-1.42,0.84-2.556v-11.76c0-0.464,0.336-0.696,1.008-0.696
				c0.272,0,0.508,0.06,0.709,0.18c0.199,0.12,0.3,0.292,0.3,0.517v11.76c0,1.809-0.479,3.132-1.44,3.972
				c-0.959,0.84-2.231,1.26-3.816,1.26c-1.584,0-2.852-0.42-3.803-1.26C105.857,39.338,105.382,38.014,105.382,36.206z"/>
		</g>
		<g id="M" enable-background="new    ">
			<path fill="#25282E" d="M119.704,40.574v-15.84c0-0.656,0.336-0.984,1.008-0.984c0.64,0,1.177,0.424,1.608,1.271l3.768,7.225
				l3.792-7.225c0.464-0.848,1-1.271,1.608-1.271c0.672,0,1.008,0.328,1.008,0.984v15.84c0,0.224-0.1,0.399-0.301,0.527
				c-0.199,0.129-0.436,0.192-0.707,0.192c-0.272,0-0.508-0.063-0.709-0.192c-0.199-0.128-0.299-0.304-0.299-0.527V27.973
				l-3.625,6.816c-0.191,0.368-0.455,0.552-0.791,0.552c-0.305,0-0.553-0.184-0.744-0.552l-3.6-6.912v12.696
				c0,0.224-0.101,0.399-0.301,0.527c-0.2,0.129-0.436,0.192-0.708,0.192s-0.508-0.063-0.708-0.192
				C119.804,40.973,119.704,40.798,119.704,40.574z"/>
		</g>
	</g>
</g>
</svg>
